<svg id="Icon" xmlns="http://www.w3.org/2000/svg" viewBox="0 0 500 500"><defs><style>.cls-1,.cls-2{fill:none;stroke:#1d4477;stroke-miterlimit:60;}.cls-1{stroke-width:20px;}.cls-2{stroke-width:14px;}</style></defs><title>RWE</title><path class="cls-1" d="M53.38,250.15c0,108.5,88,196.46,196.47,196.46a196.59,196.59,0,0,0,36.81-3.49,114.68,114.68,0,0,0,156.62-158.7,198.45,198.45,0,0,0,3-34.27c0-108.51-88-196.46-196.46-196.46a198.12,198.12,0,0,0-36.19,3.37A114.67,114.67,0,0,0,56.54,215.25,196.71,196.71,0,0,0,53.38,250.15Z"/><path class="cls-2" d="M252,110.56c63.36,3.72,100.46,31.59,104.07,57.61,1.77,17-9.54,30.23-29.16,30.23-28.67,0-31.59-38.2-80.94-38.2-22.26,0-41.05,9.25-41.05,29.33,0,41.95,158.13,17.59,158.13,110,0,53.24-42.62,88.13-106.24,88.13-55.95,0-112.19-25.37-111.9-69,.09-13.18,9.92-25.26,23-25.26,32.95,0,32.64,48.95,85.12,48.95,36.79,0,49.36-20.08,49.36-34.07,0-50.54-159.07-19.55-159.07-114.61C143.28,142.15,185.54,106.67,252,110.56Z"/></svg>