<svg id="Ebene_1" data-name="Ebene 1" xmlns="http://www.w3.org/2000/svg" viewBox="0 0 42 42"><defs><style>.cls-1{fill:#3ed8c3;}.cls-2{fill:none;stroke:#fff;stroke-miterlimit:10;stroke-width:2px;}</style></defs><title>RWE</title><path class="cls-1" d="M37.23,2A2.77,2.77,0,0,1,40,4.77V37.23A2.77,2.77,0,0,1,37.23,40H4.77A2.77,2.77,0,0,1,2,37.23V4.77A2.77,2.77,0,0,1,4.77,2H37.23m0-2H4.77A4.79,4.79,0,0,0,0,4.77V37.23A4.79,4.79,0,0,0,4.77,42H37.23A4.79,4.79,0,0,0,42,37.23V4.77A4.79,4.79,0,0,0,37.23,0Z"/><path class="cls-2" d="M34.8,13.62a11.94,11.94,0,0,1-2.06.16,10,10,0,0,0,.86-2.5,9.62,9.62,0,0,1-3,1.45,5,5,0,0,0-8.54,4.57,14.23,14.23,0,0,1-10.33-5.23,5,5,0,0,0,1.55,6.69A5.06,5.06,0,0,1,11,18.13v.06a5,5,0,0,0,4,4.92,4.93,4.93,0,0,1-2.26.08,5,5,0,0,0,4.68,3.48,10.05,10.05,0,0,1-6.22,2.15,9.66,9.66,0,0,1-1.2-.07A14.05,14.05,0,0,0,17.7,31,14.11,14.11,0,0,0,32,16.74a3.09,3.09,0,0,0,0-.43A3.67,3.67,0,0,0,34.8,13.62Z"/></svg>